# AST/ASF file generated using VICON BodyLanguage
# -----------------------------------------------
:version 1.10
:name VICON
:units
  mass 1.0
  length 0.45
  angle deg
:documentation
   .ast/.asf automatically generated from VICON data using
   VICON BodyBuilder and BodyLanguage model FoxedUp or BRILLIANT.MOD
:root
   order TX TY TZ RX RY RZ
   axis XYZ
   position 0 0 0  
   orientation 0 0 0 
:bonedata
  begin
     id 1 
     name lhipjoint
     direction 0.64773 -0.699417 0.302095 
     length 2.48597 
     axis 0 0 0  XYZ
  end
  begin
     id 2 
     name lfemur
     direction 0.34202 -0.939693 0  
     length 6.71947  
     axis 0 0 20  XYZ
    dof rx ry rz
    limits (-160.0 20.0)
           (-70.0 70.0)
           (-60.0 70.0)
  end
  begin
     id 3 
     name ltibia
     direction 0.34202 -0.939693 0   
     length 8.08777   
     axis 0 0 20   XYZ
    dof rx
    limits (-10.0 170.0)
  end
  begin
     id 4 
     name lfoot
     direction 0.0808503 -0.222134 0.971658   
     length 2.08264   
     axis -90 7.62852e-016 20   XYZ
    dof rx rz
    limits (-45.0 90.0)
           (-70.0 20.0)
  end
  begin
     id 5 
     name ltoes
     direction 1.53502e-011 -4.22007e-011 1   
     length 1.04662   
     axis -90 7.62852e-016 20   XYZ
    dof rx
    limits (-90.0 20.0)
  end
  begin
     id 6 
     name rhipjoint
     direction -0.610924 -0.726792 0.313919   
     length 2.39233  
     axis 0 0 0  XYZ 
  end
  begin
     id 7 
     name rfemur
     direction -0.34202 -0.939693 0   
     length 6.96955   
     axis 0 0 -20   XYZ
    dof rx ry rz
    limits (-160.0 20.0)
           (-70.0 70.0)
           (-70.0 60.0)
  end
  begin
     id 8 
     name rtibia
     direction -0.34202 -0.939693 0   
     length 8.19584   
     axis 0 0 -20   XYZ
    dof rx
    limits (-10.0 170.0)
 end
 begin
     id 9 
     name rfoot
     direction -0.077777 -0.213691 0.9738   
     length 2.07539  
     axis -90 -7.62852e-016 -20   XYZ
    dof rx rz
    limits (-45.0 90.0)
           (-20.0 70.0)
  end
  begin
     id 10 
     name rtoes
     direction -1.53558e-011 -4.22006e-011 1   
     length 1.04381   
     axis -90 -7.62852e-016 -20   XYZ
    dof rx
    limits (-90.0 20.0)
  end
  begin
     id 11 
     name lowerback
     direction -0.00971646 0.996074 0.0879841   
     length 1.67643   
     axis 0 0 0   XYZ
    dof rx ry rz
    limits (-20.0 45.0)
           (-30.0 30.0)
           (-30.0 30.0)
  end
  begin
     id 12 
     name upperback
     direction 0.0127391 0.991676 0.128127   
     length 1.63741   
     axis 0 0 0   XYZ
    dof rx ry rz
    limits (-20.0 45.0)
           (-30.0 30.0)
           (-30.0 30.0)
  end
  begin
     id 13 
     name thorax
     direction 0.0167583 0.996049 0.0872067   
     length 1.65931   
     axis 0 0 0   XYZ
    dof rx ry rz
    limits (-20.0 45.0)
           (-30.0 30.0)
           (-30.0 30.0)
  end
  begin
     id 14 
     name lowerneck
     direction -0.0317829 0.998312 0.0486079   
     length 1.79021   
     axis 0 0 0   XYZ
    dof rx ry rz
    limits (-20.0 45.0)
           (-30.0 30.0)
           (-30.0 30.0)
  end
  begin
     id 15 
     name upperneck
     direction 0.0896851 0.972452 -0.215159   
     length 1.78797   
     axis 0 0 0   XYZ
    dof rx ry rz
    limits (-20.0 45.0)
           (-30.0 30.0)
           (-30.0 30.0)
  end
  begin
     id 16
     name head
     direction 0.0310949 0.996503 -0.0775582  
     length 1.81549  
     axis 0 0 0   XYZ
    dof rx ry rz
    limits (-20.0 45.0)
           (-30.0 30.0)
           (-30.0 30.0)
  end
  begin
     id 17 
     name lclavicle
     direction 0.853638 0.502051 -0.138733  
     length 3.31627  
     axis 0 0 0   XYZ
    dof ry rz
    limits (-20.0 10.0)
           (0.0 20.0)
  end
  begin
     id 18 
     name lhumerus
     direction 1 -4.48962e-011 -1.41788e-018   
     length 5.54893   
     axis 180 -30 -90   XYZ
    dof rx ry rz
    limits (-60.0 90.0)
           (-90.0 90.0)
           (-90.0 90.0)
  end
  begin
     id 19
     name lradius
     direction 1 -4.48962e-011 -4.95754e-027   
     length 3.02898   
     axis 180 -30 -90   XYZ
    dof rx
    limits (-10.0 170.0)
  end
  begin
     id 20
     name lwrist
     direction 1 -4.48952e-011 -1.03764e-026   
     length 1.51449   
     axis 9.09556e-015 90 90   XYZ
    dof ry
    limits (-180.0 0.0)
 end
  begin
     id 21 
     name lhand
     direction 1 -4.4902e-011 -2.07528e-026   
     length 0.640951   
     axis 1.3242e-014 90 90   XYZ
    dof rx rz
    limits (-90.0 90.0)
           (-45.0 45.0)
  end
  begin
     id 22 
     name lfingers
     direction 1 -4.49014e-011 -4.15056e-026   
     length 0.516751   
     axis 2.64841e-014 90 90   XYZ
    dof rx
    limits (0.0 90.0)
  end
  begin
     id 23
     name lthumb
     direction 0.707107 -6.35008e-011 0.707107   
     length 0.741954   
     axis -90 45 2.85299e-015   XYZ
    dof rx rz
    limits (-45.0 45.0)
           (-45.0 45.0)
  end
  begin
     id 24 
     name rclavicle
     direction -0.888531 0.455324 -0.0565039   
     length 3.20126  
     axis 0 0 0   XYZ 
    dof ry rz
    limits (-10.0 20.0)
           (-20.0 0.0)
  end
  begin
     id 25 
     name rhumerus
     direction -1 -4.48946e-011 -8.98298e-028  
     length 5.3519   
     axis 180 30 90   XYZ
    dof rx ry rz
    limits (-90.0 60.0)
           (-90.0 90.0)
           (-90.0 90.0)
  end
  begin
     id 26 
     name rradius
     direction -1 -4.4899e-011 -3.18779e-027   
     length 3.02531   
     axis 180 30 90   XYZ
    dof rx
    limits (-10.0 170.0)
  end
  begin
     id 27 
     name rwrist
     direction -1 -4.4897e-011 -1.03764e-026   
     length 1.51266   
     axis 9.09556e-015 -90 -90   XYZ
    dof ry
    limits (-180.0 0.0)
  end
  begin
     id 28
     name rhand
     direction -1 -4.48941e-011 -2.07528e-026   
     length 0.78389   
     axis 1.3242e-014 -90 -90   XYZ
    dof rx rz
    limits (-90.0 90.0)
           (-45.0 45.0)
  end
  begin
     id 29
     name rfingers
     direction -1 -4.49012e-011 -4.15056e-026   
     length 0.631992   
     axis 2.64841e-014 -90 -90   XYZ
    dof rx
    limits (0.0 90.0)
  end
  begin
     id 30
     name rthumb
     direction -0.707107 -6.3496e-011 0.707107   
     length 0.907418   
     axis -90 -45 -2.85299e-015   XYZ
    dof rx rz
    limits (-45.0 45.0)
           (-45.0 45.0)
  end
:hierarchy
  begin
    root lhipjoint rhipjoint lowerback
    lhipjoint lfemur
    lfemur ltibia
    ltibia lfoot
    lfoot ltoes
    rhipjoint rfemur
    rfemur rtibia
    rtibia rfoot
    rfoot rtoes
    lowerback upperback
    upperback thorax
    thorax lowerneck lclavicle rclavicle
    lowerneck upperneck
    upperneck head
    lclavicle lhumerus
    lhumerus lradius
    lradius lwrist
    lwrist lhand lthumb
    lhand lfingers
    rclavicle rhumerus
    rhumerus rradius
    rradius rwrist
    rwrist rhand rthumb
    rhand rfingers
  end

#!OML:ASF E:\Style3\Style3.ASF
:FULLY-SPECIFIED
:DEGREES
485
root 0.180653 17.7804 0.802084 -114.319 88.347 232.507
lowerback -13.2001 -1.5042 -1.48119
upperback -12.2322 -1.01732 0.840037
thorax -5.52459 -0.0126885 1.59676
lowerneck -11.8182 -3.44228 -6.06462
upperneck 25.3565 -5.20645 8.25973
head 10.4236 -1.82825 3.36938
rclavicle -6.75868e-015 1.63003e-014
rhumerus 26.6052 -9.28652 -58.2755
rradius 67.8266
rwrist -35.2429
rhand -21.7757 26.1161
rfingers 7.12502
rthumb 4.62536 -3.81345
lclavicle -6.75868e-015 1.63003e-014
lhumerus 29.2581 19.3724 63.5487
lradius 62.9201
lwrist 61.4769
lhand -9.92219 18.5584
lfingers 7.12502
lthumb 16.0586 47.913
rfemur -12.2627 10.7792 19.511
rtibia 15.518
rfoot -15.223 -20.2344
rtoes -15.6496
lfemur -4.3085 -23.7853 -12.2698
ltibia 6.36111e-015
lfoot -11.839 24.8814
ltoes -9.81596
486
root 0.18373 17.7801 0.802139 -113.016 88.4227 233.845
lowerback -13.2514 -1.50647 -1.53837
upperback -12.2505 -1.01213 0.83846
thorax -5.51665 -0.00484043 1.62702
lowerneck -11.7355 -3.42878 -6.07767
upperneck 25.4304 -5.18459 8.24983
head 10.4326 -1.81923 3.37374
rclavicle -5.31749e-015 -8.94531e-016
rhumerus 26.2009 -9.0938 -58.1219
rradius 67.2128
rwrist -34.9212
rhand -21.9195 26.1287
rfingers 7.12502
rthumb 4.48653 -3.80381
lclavicle -5.31749e-015 -8.94531e-016
lhumerus 28.8102 19.5345 63.4533
lradius 62.3044
lwrist 61.1084
lhand -9.64616 18.3954
lfingers 7.12502
lthumb 16.3244 47.7283
rfemur -12.2273 10.7872 19.4703
rtibia 15.5324
rfoot -15.1969 -20.2092
rtoes -15.73
lfemur -4.23492 -23.7271 -12.3583
ltibia 4.77083e-015
lfoot -11.8573 24.8807
ltoes -9.63539
487
root 0.184647 17.7807 0.80175 -112.276 88.494 234.638
lowerback -13.2444 -1.50331 -1.57709
upperback -12.2644 -1.00479 0.810973
thorax -5.53594 0.00102374 1.62046
lowerneck -11.6532 -3.41372 -6.09297
upperneck 25.495 -5.17444 8.29863
head 10.4409 -1.80895 3.39819
rclavicle 7.45443e-017 2.48481e-015
rhumerus 25.765 -8.92404 -57.9975
rradius 66.657
rwrist -34.7557
rhand -21.8406 26.1681
rfingers 7.12502
rthumb 4.5627 -3.76277
lclavicle 7.45443e-017 2.48481e-015
lhumerus 28.4251 19.6785 63.3512
lradius 61.6627
lwrist 60.6341
lhand -9.28319 18.4694
lfingers 7.12502
lthumb 16.6738 47.7733
rfemur -12.1728 10.7322 19.4329
rtibia 15.5465
rfoot -15.214 -20.1269
rtoes -15.7591
lfemur -4.16012 -23.6889 -12.4568
ltibia -2.22639e-014
lfoot -11.7735 24.9226
ltoes -9.48194
488
root 0.187236 17.7803 0.80229 -110.227 88.515 236.732
lowerback -13.3147 -1.52915 -1.61211
upperback -12.2261 -1.0374 0.835099
thorax -5.45346 -0.0143307 1.66197
lowerneck -11.7125 -3.3719 -6.04163
upperneck 25.6021 -5.12878 8.30503
head 10.4866 -1.7779 3.40024
rclavicle -4.5969e-015 -1.49089e-015
rhumerus 25.4682 -8.69934 -57.938
rradius 66.0528
rwrist -34.5728
rhand -21.7851 26.0113
rfingers 7.12502
rthumb 4.61628 -3.91839
lclavicle -4.5969e-015 -1.49089e-015
lhumerus 28.0436 19.904 63.2092
lradius 61.0446
lwrist 60.1771
lhand -9.07826 18.5725
lfingers 7.12502
lthumb 16.8711 47.8597
rfemur -12.133 10.8437 19.442
rtibia 15.5842
rfoot -15.354 -20.1184
rtoes -15.4133
lfemur -4.07944 -23.6364 -12.4826
ltibia 0
lfoot -11.8978 24.9301
ltoes -9.24849
489
root 0.189165 17.7787 0.800189 -107.859 88.5426 239.133
lowerback -13.4307 -1.5086 -1.57841
upperback -12.1675 -1.01543 0.822255
thorax -5.32788 -0.00983966 1.63005
lowerneck -11.8134 -3.36622 -6.02833
upperneck 25.7139 -5.12548 8.31
head 10.5472 -1.76966 3.4027
rclavicle -1.39149e-015 -1.78906e-015
rhumerus 25.0964 -8.50551 -57.8323
rradius 65.5582
rwrist -34.3031
rhand -21.9805 26.1207
rfingers 7.12502
rthumb 4.42762 -3.81302
lclavicle -1.39149e-015 -1.78906e-015
lhumerus 27.7344 20.0566 63.1417
lradius 60.4662
lwrist 59.878
lhand -8.99865 18.3733
lfingers 7.12502
lthumb 16.9477 47.6539
rfemur -12.1129 10.8331 19.4434
rtibia 15.6058
rfoot -15.3467 -20.0727
rtoes -15.4736
lfemur -4.01144 -23.5748 -12.5178
ltibia 1.59028e-015
lfoot -11.8648 24.9239
ltoes -9.66737
490
root 0.190612 17.7785 0.799345 -105.703 88.5829 241.288
lowerback -13.509 -1.4871 -1.57165
upperback -12.1717 -0.9848 0.802486
thorax -5.29226 0.00469751 1.60726
lowerneck -11.8016 -3.36294 -6.04197
upperneck 25.7778 -5.12891 8.34868
head 10.5702 -1.76585 3.42088
rclavicle 1.12313e-014 1.09332e-015
rhumerus 24.6372 -8.3403 -57.7568
rradius 65.1062
rwrist -33.9812
rhand -21.6374 25.9899
rfingers 7.12502
rthumb 4.75893 -3.93669
lclavicle 1.12313e-014 1.09332e-015
lhumerus 27.3114 20.0475 62.9601
lradius 59.9145
lwrist 59.8892
lhand -9.17477 17.7091
lfingers 7.12502
lthumb 16.7782 47.0041
rfemur -12.1294 10.7935 19.4235
rtibia 15.62
rfoot -15.3324 -19.9828
rtoes -15.5345
lfemur -3.99344 -23.5122 -12.5492
ltibia -6.36111e-015
lfoot -11.8889 24.9158
ltoes -9.52474
491
root 0.191905 17.778 0.799002 -103.246 88.6208 243.791
lowerback -13.5031 -1.48067 -1.57432
upperback -12.1908 -0.97486 0.801993
thorax -5.31689 0.0107997 1.60921
lowerneck -11.7879 -3.34707 -6.04585
upperneck 25.9024 -5.11025 8.35789
head 10.6123 -1.75255 3.43134
rclavicle -1.44119e-015 3.08116e-015
rhumerus 24.1892 -8.11179 -57.7406
rradius 64.6059
rwrist -33.5972
rhand -20.9763 25.5079
rfingers 7.12502
rthumb 5.39721 -4.40339
lclavicle -1.44119e-015 3.08116e-015
lhumerus 26.7778 20.0551 62.7596
lradius 59.4607
lwrist 60.0297
lhand -9.24455 17.3413
lfingers 7.12502
lthumb 16.711 46.642
rfemur -12.1012 10.8207 19.4147
rtibia 15.6588
rfoot -15.3538 -19.9255
rtoes -15.5515
lfemur -3.91698 -23.4504 -12.6007
ltibia -1.59028e-015
lfoot -11.8431 24.9023
ltoes -9.63042
492
root 0.192264 17.7789 0.799219 -100.939 88.7031 246.119
lowerback -13.4976 -1.46537 -1.64569
upperback -12.2088 -0.947687 0.784649
thorax -5.3402 0.0297367 1.63336
lowerneck -11.8173 -3.35001 -6.04862
upperneck 26.0143 -5.11772 8.36656
head 10.6605 -1.75106 3.43731
rclavicle 3.37934e-015 -3.97569e-016
rhumerus 23.7145 -7.91668 -57.6675
rradius 64.121
rwrist -33.4289
rhand -20.5962 25.0773
rfingers 7.12502
rthumb 5.76417 -4.82427
lclavicle 3.37934e-015 -3.97569e-016
lhumerus 26.3489 20.118 62.7465
lradius 59.0819
lwrist 60.1218
lhand -9.04238 17.6675
lfingers 7.12502
lthumb 16.9056 46.9517
rfemur -12.1082 10.8593 19.3391
rtibia 15.6879
rfoot -15.401 -19.8592
rtoes -15.729
lfemur -3.86652 -23.3837 -12.6908
ltibia -4.77083e-015
lfoot -11.8818 24.8602
ltoes -9.58379
493
root 0.191793 17.7772 0.798621 -97.3908 88.7518 249.689
lowerback -13.4882 -1.43262 -1.6527
upperback -12.2519 -0.900532 0.764384
thorax -5.3952 0.055672 1.62011
lowerneck -11.7101 -3.34595 -6.07309
upperneck 26.0516 -5.11899 8.40755
head 10.655 -1.7489 3.45858
rclavicle 2.18663e-015 1.19271e-014
rhumerus 23.2327 -7.73504 -57.6343
rradius 63.5972
rwrist -33.2757
rhand -20.5582 25.0297
rfingers 7.12502
rthumb 5.8009 -4.87087
lclavicle 2.18663e-015 1.19271e-014
lhumerus 25.8543 20.0954 62.7077
lradius 58.7211
lwrist 60.3478
lhand -8.9722 17.5862
lfingers 7.12502
lthumb 16.9732 46.8647
rfemur -12.1126 10.7954 19.3162
rtibia 15.7096
rfoot -15.3428 -19.7721
rtoes -16.5412
lfemur -3.8055 -23.3015 -12.7487
ltibia 1.59028e-015
lfoot -11.9556 24.8371
ltoes -9.60852
494
root 0.190945 17.7754 0.798384 -95.5605 88.7459 251.562
lowerback -13.469 -1.42835 -1.63111
upperback -12.2746 -0.895286 0.769161
thorax -5.43112 0.0582248 1.6137
lowerneck -11.6293 -3.34816 -6.15099
upperneck 26.067 -5.12739 8.4884
head 10.6498 -1.75131 3.50193
rclavicle 3.23025e-015 2.68359e-015
rhumerus 22.7509 -7.49759 -57.6518
rradius 63.0914
rwrist -33.1336
rhand -21.1339 25.9915
rfingers 7.12502
rthumb 5.24508 -3.92363
lclavicle 3.23025e-015 2.68359e-015
lhumerus 25.3179 20.1042 62.6108
lradius 58.3933
lwrist 60.6671
lhand -8.99417 17.5941
lfingers 7.12502
lthumb 16.9521 46.8743
rfemur -12.0767 10.8308 19.3393
rtibia 15.719
rfoot -15.3657 -19.773
rtoes -16.5128
lfemur -3.75552 -23.2667 -12.7548
ltibia -1.43125e-014
lfoot -11.9883 24.8147
ltoes -9.5442
495
root 0.189282 17.776 0.798678 -93.6783 88.7226 253.461
lowerback -13.5002 -1.43526 -1.6342
upperback -12.2376 -0.906245 0.804193
thorax -5.3724 0.0520615 1.65115
lowerneck -11.715 -3.35832 -6.22063
upperneck 26.1212 -5.14255 8.55027
head 10.692 -1.75532 3.53589
rclavicle 1.59028e-015 2.48481e-015
rhumerus 22.3861 -7.22673 -57.6691
rradius 62.6165
rwrist -33.0665
rhand -21.7392 26.7478
rfingers 7.12502
rthumb 4.66057 -3.18094
lclavicle 1.59028e-015 2.48481e-015
lhumerus 24.8633 20.2171 62.598
lradius 58.0755
lwrist 60.8932
lhand -8.76836 17.4651
lfingers 7.12502
lthumb 17.1694 46.7265
rfemur -12.0578 10.9504 19.3714
rtibia 15.7025
rfoot -15.4081 -19.8233
rtoes -16.3526
lfemur -3.74787 -23.2285 -12.7284
ltibia -1.27222e-014
lfoot -11.825 24.8441
ltoes -9.95714
496
root 0.18898 17.7769 0.797387 -90.6217 88.7136 256.545
lowerback -13.5214 -1.4309 -1.61307
upperback -12.2022 -0.905642 0.81485
thorax -5.32193 0.0487868 1.65042
lowerneck -11.8416 -3.35609 -6.20087
upperneck 26.2152 -5.14102 8.53861
head 10.7512 -1.74964 3.53039
rclavicle -2.6339e-015 -1.49089e-015
rhumerus 22.0371 -6.98557 -57.7195
rradius 62.1664
rwrist -33.0423
rhand -21.8309 26.7087
rfingers 7.12502
rthumb 4.57206 -3.22192
lclavicle -2.6339e-015 -1.49089e-015
lhumerus 24.3662 20.3216 62.5367
lradius 57.817
lwrist 60.9277
lhand -8.45645 17.3369
lfingers 7.12502
lthumb 17.4696 46.5719
rfemur -12.0143 11.0178 19.3882
rtibia 15.6706
rfoot -15.3716 -19.8366
rtoes -15.8563
lfemur -3.69411 -23.1632 -12.7312
ltibia 3.18055e-015
lfoot -11.8031 24.8206
ltoes -9.8964
